<?xml version="1.0" encoding="utf-8"?>
<!-- Generator: Adobe Illustrator 19.2.1, SVG Export Plug-In . SVG Version: 6.00 Build 0)  -->
<!DOCTYPE svg PUBLIC "-//W3C//DTD SVG 1.1//EN" "http://www.w3.org/Graphics/SVG/1.1/DTD/svg11.dtd">
<svg version="1.1" id="roln" xmlns="http://www.w3.org/2000/svg" xmlns:xlink="http://www.w3.org/1999/xlink" x="0px" y="0px"
	 viewBox="0 0 250 250" style="enable-background:new 0 0 250 250;" xml:space="preserve">
<path id="roln-logo" d="M165.1,75.9c7.3-28,5.6-47.1-26.7-47.1v-0.1h-31L84,122.3h28.1C145.3,122.4,157.5,107.3,165.1,75.9z
	 M114.3,113.2H95.2L114,37.8h22.1c24.7,0,25.7,15.5,19.8,38.3C149.6,101.1,140.3,113.2,114.3,113.2z M303.2,211.8H145.3l11.5-46.1
	c3.7-14.8,4-31.3-3.6-40.9c15.2-12.2,23.1-31.9,27-48.8c9.2-36.9,5.9-62.3-36.6-62.3l0,0H96.2L40.8,235.9h24l24.4-98.2h22.7
	c20.8,0,25.4,8.6,20.4,29l-17.1,69.2h204.7L303.2,211.8z M126.1,226.6l15.2-60c6.6-26.7,0.7-38.3-27-38.3H82.6l-24.7,98.2h-6.3
	l51.1-204h38.5c34.9,0,37.6,22,29.7,53.4c-5,19.8-13.8,42.9-37.3,49.4c18.8,4.6,18.4,22.7,14.2,40.2l-14.1,55.4h164.5l4,5.6
	L126.1,226.6L126.1,226.6z"/>
</svg>
