<?xml version="1.0" encoding="utf-8"?>
<!-- Generator: Adobe Illustrator 19.2.1, SVG Export Plug-In . SVG Version: 6.00 Build 0)  -->
<!DOCTYPE svg PUBLIC "-//W3C//DTD SVG 1.1//EN" "http://www.w3.org/Graphics/SVG/1.1/DTD/svg11.dtd">
<svg version="1.1" id="roln" xmlns="http://www.w3.org/2000/svg" xmlns:xlink="http://www.w3.org/1999/xlink" x="0px" y="0px"
	 viewBox="0 0 1000 450" style="enable-background:new 0 0 1000 450;" xml:space="preserve">
<path id="roln-logo" d="M236.6,136.7c13.1-50.6,10.1-85.1-48.2-85.1v-0.1h-56L90.1,220.6h50.7C200.9,220.6,222.9,193.3,236.6,136.7z
	 M144.9,204h-34.5l33.9-136.4h39.9c44.6,0,46.4,28,35.7,69.1C208.6,182,191.9,204,144.9,204z M944.3,24.2l-19,75h43.5l19-75
	C987.8,24.2,944.3,24.2,944.3,24.2z M956.3,82.5h-10.7l10.7-42.3H967L956.3,82.5z M794.4,289.7L753.9,24.2h-36.3l-89.2,357.7H500.3
	L590.5,20h-38.8H415l0,0c-66.8,1-109.6,52.4-124.8,112.6l-45.8,183.9c-6,24.6-7.1,47.1-2.1,65.4h-41.4l20.8-83.3
	c6.6-26.8,7.2-56.5-6.5-73.8c27.4-22,41.7-57.7,48.8-88.1C280.6,70,274.7,24.2,197.9,24.2l0,0h-85.7l-100,401.2h43.4L99.7,248h41
	c37.5,0,45.8,15.5,36.9,52.4l-31,125h139.5c8.4,2.3,18.1,3.6,29.1,3.6c70.2,0,110.1-48.2,126.2-112.5l45.8-184
	c6.5-25.6,7.3-49.7,0.7-68.9l48.6,0.7l-89.9,361.1H661l66.1-265.5c22.1,143.5,31.6,209.5,41.1,265.5h36.3l100-401.2H861L794.4,289.7
	z M166.2,408.7l27.4-108.3c11.9-48.3,1.2-69.1-48.8-69.1H87.7L43.1,408.7H31.8l92.3-368.4h69.6c63.1,0,67.9,39.8,53.6,96.4
	c-9,35.7-25,77.4-67.3,89.3c33.9,8.3,33.3,41,25.6,72.6l-25.5,100h69.3c2.2,3.7,4.7,7,7.7,10.1H166.2z M883.7,40.3l-92.3,368.5h-8.9
	c-17.3-111.4-32.7-222.7-50-334.6l-84,334.5H466.4l90.4-361.3H413.7c-1.1,0-2.1,0-3.2,0c-52.4,0-82.8,45.3-94.1,90.5l-43.5,173.8
	c-11.9,47-4.8,89.9,48.8,89.9s81-40.5,92.9-88.1l44.1-175c7.2-29.8,7.7-58.5-6.8-75.4l15.7,0.2c9.5,17.9,9.7,42.7,2.9,69.3
	l-45.8,183.9c-13.7,54.7-46.5,96.4-105.4,96.4c-57.7,0-71.4-42.8-58.3-96.4l45.8-183.9c13.1-51.8,50-97,106.6-97c0.1,0,0.2,0,0.3,0
	l0,0l146.1-0.1l0,0h10.7l-90.4,363.1h159.6l89.8-358.4h9.5l51.3,334.7l83.3-334.6L883.7,40.3L883.7,40.3z M442,138.5l-44.1,175
	c-9.5,38.7-30.3,72-72,72c-41.1,0-46.4-35.7-36.9-73.8l43.5-173.8c9.5-37.5,33.3-73.8,73.8-73.8C448,64.1,451.5,100.4,442,138.5z"/>
</svg>
